<?xml version="1.0" encoding="utf-8"?>
<!-- Generator: Adobe Illustrator 21.0.2, SVG Export Plug-In . SVG Version: 6.00 Build 0)  -->
<svg version="1.1" id="Layer_1" xmlns="http://www.w3.org/2000/svg" xmlns:xlink="http://www.w3.org/1999/xlink" x="0px" y="0px"
	 viewBox="0 0 167.4 167.4" style="enable-background:new 0 0 167.4 167.4;" xml:space="preserve">
<style type="text/css">
	.st0{fill:#FFF200;}
	.st1{fill:#0B0B0B;}
</style>
<circle class="st0" cx="83.7" cy="83.7" r="83.7"/>
<g>
	<path class="st1" d="M48.8,61.7c8.5,0,14.3,4.8,14.3,11.8c0,4.2-2.3,7.5-6,8.5c4.8,1.2,7.6,4.8,7.6,9.9c0,8.2-6.6,13.9-15.9,13.9
		c-9.7,0-15.9-5.8-15.9-15v-0.6h8.4c0.1,5.3,2.6,8.2,7.3,8.2c4.3,0,7.1-2.6,7.1-6.5c0-4.8-3.7-6.4-7.8-6.4c-0.9,0-1.3,0-2.1,0.1
		v-6.1c0.7,0.1,0.9,0.1,1.5,0.1c5,0,7.5-1.8,7.5-5.4c0-3.2-2.4-5.4-5.9-5.4c-4,0-6.4,2.6-6.5,7.4H34C34.3,67.2,39.7,61.7,48.8,61.7z
		"/>
	<path class="st1" d="M90.3,73.1c-0.8-3.2-2.7-4.8-5.8-4.8c-4.8,0-7.5,4.1-8.2,12.8c2.3-3.2,5.6-4.8,9.6-4.8
		c7.8,0,13.4,5.9,13.4,14.2c0.1,8.9-6.4,15.3-15.3,15.3c-10.2,0-16.2-7.9-16.2-21.3c0-14.1,6.3-22.7,16.7-22.7
		c7.7,0,12.9,4.2,13.9,11.5H90.3z M77.2,90.7c0,4.7,2.8,7.9,6.8,7.9c4,0,6.9-3.4,6.9-8s-2.9-7.9-7-7.9C80,82.7,77.2,86.1,77.2,90.7z
		"/>
	<path class="st1" d="M134.5,83.7c0,13.6-5.9,21.9-15.6,21.9c-9.9,0-15.9-8.2-15.9-21.9c0-10.1,3.6-22,15.8-22
		C131.1,61.7,134.5,73.6,134.5,83.7z M111.6,84.2c0,9.7,2.3,14.4,7.2,14.4c4.8,0,7.1-4.8,7.1-14.8c0-10.2-2.2-14.8-7.2-14.8
		C111.6,68.9,111.6,79.1,111.6,84.2z"/>
</g>
</svg>
